<svg width="391" height="200" viewBox="0 0 391 200" fill="none" xmlns="http://www.w3.org/2000/svg">
<path d="M373.049 56.035C371.595 56.035 370.23 55.7647 368.962 55.2176C367.688 54.6769 366.574 53.9174 365.608 52.9583C364.643 51.9928 363.89 50.8792 363.349 49.6048C362.809 48.3303 362.532 46.9722 362.532 45.5175C362.532 44.0628 362.802 42.6982 363.349 41.4302C363.89 40.1622 364.649 39.0422 365.608 38.0767C366.574 37.1112 367.688 36.3581 368.962 35.8175C370.23 35.2768 371.595 35 373.049 35C374.504 35 375.869 35.2703 377.143 35.8175C378.411 36.3646 379.531 37.1177 380.497 38.0767C381.462 39.0422 382.215 40.1622 382.756 41.4302C383.296 42.7047 383.573 44.0628 383.573 45.5175C383.573 46.9722 383.303 48.3368 382.756 49.6048C382.215 50.8792 381.456 51.9928 380.497 52.9583C379.531 53.9238 378.417 54.6769 377.143 55.2176C375.869 55.7647 374.504 56.035 373.049 56.035ZM373.049 54.0783C374.626 54.0783 376.062 53.6921 377.355 52.9197C378.649 52.1473 379.679 51.1174 380.451 49.8236C381.224 48.5299 381.61 47.0945 381.61 45.5175C381.61 43.9405 381.224 42.5051 380.451 41.2114C379.679 39.9176 378.649 38.8877 377.355 38.1153C376.062 37.3429 374.626 36.9567 373.049 36.9567C371.472 36.9567 370.037 37.3429 368.743 38.1153C367.449 38.8877 366.42 39.9176 365.647 41.2114C364.875 42.5051 364.489 43.9405 364.489 45.5175C364.489 47.0945 364.875 48.5299 365.647 49.8236C366.42 51.1174 367.449 52.1473 368.743 52.9197C370.037 53.6921 371.472 54.0783 373.049 54.0783ZM369.483 50.2549V40.5484H374.137C374.626 40.5484 375.103 40.6643 375.566 40.896C376.029 41.1277 376.409 41.4688 376.712 41.9194C377.014 42.37 377.169 42.9235 377.169 43.5865C377.169 44.243 377.014 44.8095 376.699 45.2922C376.39 45.7685 375.991 46.1354 375.515 46.3929C375.038 46.6504 374.543 46.7727 374.034 46.7727H370.43V45.4467H373.584C374.028 45.4467 374.433 45.2858 374.787 44.964C375.141 44.6421 375.321 44.1851 375.321 43.5929C375.321 42.9815 375.141 42.5438 374.787 42.2799C374.433 42.016 374.047 41.8872 373.622 41.8872H371.176V50.2678H369.483V50.2549ZM375.141 45.7428L377.561 50.2549H375.669L373.313 45.7428H375.141Z" fill="#02262B"/>
<path fill-rule="evenodd" clip-rule="evenodd" d="M234.346 0L227.491 35H355L320.308 200H159.063L168.332 155H0L33.0201 0H234.346ZM108.841 90.7461C108.944 89.6026 109.022 88.4848 109.073 87.3865C109.125 86.2946 109.151 85.3384 109.144 84.5244C109.144 79.1812 108.305 74.4454 106.625 70.3234C104.945 66.2014 102.677 62.7255 99.828 59.9021C96.9787 57.0723 93.6579 54.9273 89.8654 53.4478C86.0664 51.9682 82.0607 51.2317 77.8353 51.2317C71.5748 51.2317 65.8052 52.4528 60.5397 54.895C55.2676 57.3372 50.7515 60.7873 46.9848 65.2388C43.2182 69.6967 40.2785 75.0399 38.1658 81.2746C36.0531 87.5092 35 94.4223 35 102.007C35 107.557 35.8787 112.467 37.636 116.744C39.3934 121.022 41.7839 124.62 44.814 127.547C47.8441 130.474 51.3976 132.69 55.4679 134.189C59.5382 135.694 63.867 136.444 68.4477 136.444C73.2352 136.444 77.6221 135.869 81.6213 134.725C85.6141 133.581 89.1288 131.999 92.159 129.989C95.1891 127.98 97.6959 125.596 99.6794 122.85C101.663 120.104 103.091 117.152 103.956 113.992H89.9817C88.2502 117.203 85.7304 119.749 82.4225 121.629C79.1145 123.509 74.7341 124.452 69.2876 124.452C66.7937 124.452 64.3257 124.032 61.8835 123.192C59.4413 122.353 57.2382 120.996 55.2805 119.109C53.3165 117.223 51.7271 114.793 50.506 111.815C49.2849 108.836 48.6711 105.238 48.6711 101.012C48.6711 100.302 48.684 99.6169 48.7099 98.9514C48.7357 98.2924 48.7745 97.6075 48.8262 96.8904H108.156C108.311 96.128 108.434 95.1976 108.537 94.1058C108.602 93.3788 108.669 92.6374 108.737 91.8856C108.772 91.5083 108.806 91.1283 108.841 90.7461ZM90.6729 68.7923C89.0965 66.9574 87.1324 65.5102 84.7936 64.4377C82.4483 63.3716 79.7283 62.8354 76.6206 62.8354C73.4613 62.8354 70.5087 63.3975 67.7628 64.5152C65.0105 65.6329 62.5166 67.2287 60.2812 69.2897C58.0393 71.3508 56.1075 73.8188 54.4794 76.6939C52.8512 79.5689 51.5526 82.767 50.5835 86.2753H95.2537C95.3054 86.0233 95.3441 85.5517 95.37 84.8604C95.3958 84.1755 95.4087 83.4971 95.4087 82.8381C95.4087 80.1375 95.0146 77.579 94.2264 75.1626C93.4317 72.7527 92.2494 70.6271 90.6729 68.7923ZM171.434 134.996L173.798 123.774H172.577C169.573 127.696 165.806 130.784 161.277 133.052C156.748 135.313 151.857 136.45 146.617 136.45C142.495 136.45 138.625 135.675 135.007 134.118C131.389 132.567 128.224 130.338 125.503 127.437C122.777 124.536 120.626 121.022 119.049 116.9C117.473 112.778 116.684 108.171 116.684 103.08C116.684 98.1438 117.182 93.4209 118.17 88.9177C119.165 84.4145 120.574 80.2408 122.409 76.3966C124.244 72.5524 126.44 69.0765 129.012 65.9753C131.583 62.8676 134.432 60.2251 137.566 58.0349C140.699 55.8447 144.078 54.1649 147.722 52.9955C151.36 51.8261 155.165 51.2381 159.139 51.2381C162.091 51.2381 164.902 51.6451 167.576 52.4592C170.251 53.2733 172.668 54.4039 174.832 55.8576C176.996 57.3113 178.851 59.0622 180.408 61.1232C181.958 63.1842 183.095 65.439 183.806 67.8812H185.027L195.184 20H208.545L184.11 135.003H171.434V134.996ZM168.758 64.6702C171.304 65.7363 173.468 67.2545 175.252 69.2122C177.035 71.1763 178.404 73.5538 179.367 76.3449C180.336 79.1489 180.821 82.3018 180.821 85.8165C180.821 91.263 180.052 96.3412 178.527 101.051C177.002 105.761 174.89 109.857 172.189 113.346C169.495 116.828 166.323 119.581 162.685 121.59C159.041 123.606 155.087 124.607 150.81 124.607C147.761 124.607 144.983 124.032 142.489 122.889C139.995 121.739 137.856 120.136 136.073 118.075C134.29 116.014 132.907 113.533 131.912 110.633C130.917 107.732 130.42 104.553 130.42 101.09C130.42 95.5401 131.189 90.436 132.714 85.7777C134.238 81.1259 136.325 77.1138 138.974 73.7541C141.623 70.3945 144.75 67.7779 148.368 65.8913C151.98 64.0112 155.901 63.0679 160.127 63.0679C163.338 63.0679 166.213 63.5977 168.758 64.6702ZM303.21 180H273.521L254.109 137.395H251.684L215.758 180H186.25L242.237 113.671L216.302 55H246.555L263.809 95.3937H265.416L298.043 55H327.952L274.507 116.608L303.21 180Z" fill="#00262B"/>
</svg>
