<svg width="355" height="200" viewBox="0 0 355 200" fill="none" xmlns="http://www.w3.org/2000/svg">
<path fill-rule="evenodd" clip-rule="evenodd" d="M234.346 0L227.491 35H355L320.308 200H159.063L168.332 155H0L33.0201 0H234.346ZM108.841 90.7461C108.944 89.6026 109.022 88.4848 109.073 87.3865C109.125 86.2946 109.151 85.3384 109.144 84.5244C109.144 79.1812 108.305 74.4454 106.625 70.3234C104.945 66.2014 102.677 62.7255 99.828 59.9021C96.9787 57.0723 93.6579 54.9273 89.8654 53.4478C86.0664 51.9682 82.0607 51.2317 77.8353 51.2317C71.5748 51.2317 65.8052 52.4528 60.5397 54.895C55.2676 57.3372 50.7515 60.7873 46.9848 65.2388C43.2182 69.6967 40.2785 75.0399 38.1658 81.2746C36.0531 87.5092 35 94.4223 35 102.007C35 107.557 35.8787 112.467 37.636 116.744C39.3934 121.022 41.7839 124.62 44.814 127.547C47.8441 130.474 51.3976 132.69 55.4679 134.189C59.5382 135.694 63.867 136.444 68.4477 136.444C73.2352 136.444 77.6221 135.869 81.6213 134.725C85.6141 133.581 89.1288 131.999 92.159 129.989C95.1891 127.98 97.6959 125.596 99.6794 122.85C101.663 120.104 103.091 117.152 103.956 113.992H89.9817C88.2502 117.203 85.7304 119.749 82.4225 121.629C79.1145 123.509 74.7341 124.452 69.2876 124.452C66.7937 124.452 64.3257 124.032 61.8835 123.192C59.4413 122.353 57.2382 120.996 55.2806 119.109C53.3165 117.223 51.7271 114.793 50.506 111.815C49.2849 108.836 48.6711 105.238 48.6711 101.012C48.6711 100.302 48.684 99.6169 48.7099 98.9514C48.7357 98.2924 48.7745 97.6075 48.8262 96.8904H108.156C108.311 96.128 108.434 95.1976 108.537 94.1058C108.601 93.3901 108.667 92.6607 108.734 91.9209L108.735 91.9092L108.736 91.8974L108.737 91.8856L108.739 91.8697C108.756 91.6805 108.773 91.4906 108.791 91.3001C108.807 91.116 108.824 90.9313 108.841 90.7461ZM90.6729 68.7923C89.0965 66.9574 87.1324 65.5102 84.7936 64.4377C82.4483 63.3716 79.7283 62.8354 76.6206 62.8354C73.4613 62.8354 70.5087 63.3975 67.7628 64.5152C65.0105 65.6329 62.5166 67.2287 60.2812 69.2897C58.0393 71.3508 56.1075 73.8188 54.4794 76.6939C52.8512 79.5689 51.5526 82.767 50.5835 86.2753H95.2537C95.3054 86.0233 95.3441 85.5517 95.37 84.8604C95.3958 84.1755 95.4087 83.4971 95.4087 82.8381C95.4087 80.1375 95.0146 77.579 94.2264 75.1626C93.4317 72.7527 92.2494 70.6271 90.6729 68.7923ZM171.434 134.996L173.798 123.774H172.577C169.573 127.696 165.806 130.784 161.277 133.052C156.748 135.313 151.857 136.45 146.617 136.45C142.495 136.45 138.625 135.675 135.007 134.118C131.389 132.567 128.223 130.338 125.503 127.437C122.777 124.536 120.626 121.022 119.049 116.9C117.473 112.778 116.684 108.171 116.684 103.08C116.684 98.1438 117.182 93.4209 118.17 88.9177C119.165 84.4145 120.574 80.2408 122.409 76.3966C124.244 72.5524 126.44 69.0765 129.012 65.9753C131.583 62.8676 134.432 60.2251 137.566 58.0349C140.699 55.8447 144.078 54.1649 147.722 52.9955C151.36 51.8261 155.165 51.2381 159.139 51.2381C162.091 51.2381 164.902 51.6451 167.576 52.4592C170.251 53.2733 172.668 54.4039 174.832 55.8576C176.996 57.3113 178.851 59.0622 180.408 61.1232C181.958 63.1842 183.095 65.439 183.806 67.8812H185.027L195.184 20H208.545L184.11 135.003H171.434V134.996ZM168.758 64.6702C171.304 65.7363 173.468 67.2545 175.252 69.2122C177.035 71.1763 178.404 73.5538 179.367 76.3449C180.336 79.1489 180.821 82.3018 180.821 85.8165C180.821 91.263 180.052 96.3412 178.527 101.051C177.002 105.761 174.89 109.857 172.189 113.346C169.495 116.828 166.323 119.581 162.685 121.59C159.041 123.606 155.087 124.607 150.81 124.607C147.761 124.607 144.983 124.032 142.489 122.889C139.995 121.739 137.856 120.136 136.073 118.075C134.29 116.014 132.907 113.533 131.912 110.633C130.917 107.732 130.42 104.553 130.42 101.09C130.42 95.5401 131.189 90.436 132.714 85.7777C134.238 81.1259 136.325 77.1138 138.974 73.7541C141.623 70.3945 144.75 67.7779 148.368 65.8913C151.98 64.0112 155.901 63.0679 160.127 63.0679C163.338 63.0679 166.213 63.5977 168.758 64.6702ZM303.21 180H273.521L254.109 137.395H251.684L215.758 180H186.25L242.237 113.671L216.302 55H246.555L263.809 95.3937H265.416L298.043 55H327.952L274.507 116.608L303.21 180Z" fill="#00262B"/>
</svg>
